<svg xmlns="http://www.w3.org/2000/svg" fill="#fdfdfd" viewBox="0 0 20 20"><path d="M5.556 0v1.111h8.889V0h1.111v1.111h1.667a2.778 2.778 0 0 1 2.771 2.587v.009l.006.182v13.333A2.778 2.778 0 0 1 17.222 20H2.778A2.778 2.778 0 0 1 0 17.222V3.889a2.778 2.778 0 0 1 2.778-2.778h1.667V0h1.111zM4.444 2.222H2.777A1.67 1.67 0 0 0 1.11 3.889v13.333a1.67 1.67 0 0 0 1.667 1.667h14.444a1.67 1.67 0 0 0 1.667-1.667V3.889a1.67 1.67 0 0 0-1.667-1.667h-1.667v1.111h-1.111V2.222H5.554v1.111H4.443V2.222zm12.778 14.445H2.778V5.556h14.444v11.111zM6.111 13.333H3.889v2.222h2.222v-2.222zm3.333 0H7.222v2.222h2.222v-2.222zm3.334 0h-2.222v2.222h2.222v-2.222zm3.333 0h-2.222v2.222h2.222v-2.222zM6.111 10H3.889v2.222h2.222V10zm3.333 0H7.222v2.222h2.222V10zm3.334 0h-2.222v2.222h2.222V10zm3.333 0h-2.222v2.222h2.222V10zm-10-3.333H3.889v2.222h2.222V6.667zm3.333 0H7.222v2.222h2.222V6.667zm3.334 0h-2.222v2.222h2.222V6.667zm3.333 0h-2.222v2.222h2.222V6.667z"/></svg>